<svg width="143" height="30" viewBox="0 0 143 30" fill="none" xmlns="http://www.w3.org/2000/svg">
<path d="M7.34 23.3C6.40667 23.3 5.53 23.1367 4.71 22.81C3.89667 22.4767 3.18 21.99 2.56 21.35C1.94667 20.71 1.46667 19.9267 1.12 19C0.773333 18.0667 0.6 17 0.6 15.8C0.6 14.2267 0.893333 12.8833 1.48 11.77C2.06667 10.65 2.87 9.79333 3.89 9.2C4.91 8.6 6.06 8.3 7.34 8.3C9.11333 8.3 10.5167 8.71333 11.55 9.54C12.59 10.36 13.2933 11.5133 13.66 13L11.2 13.39C10.9267 12.5367 10.48 11.8567 9.86 11.35C9.24 10.8367 8.45 10.58 7.49 10.58C6.52333 10.5667 5.72 10.7767 5.08 11.21C4.44 11.6433 3.95667 12.2533 3.63 13.04C3.31 13.8267 3.15 14.7467 3.15 15.8C3.15 16.8533 3.31 17.77 3.63 18.55C3.95 19.3233 4.43 19.9267 5.07 20.36C5.71667 20.7933 6.52333 21.0167 7.49 21.03C8.21667 21.0367 8.85333 20.9067 9.4 20.64C9.94667 20.3667 10.3933 19.9567 10.74 19.41C11.0867 18.8567 11.32 18.1667 11.44 17.34H8.9V15.45H14C14.0133 15.5567 14.0233 15.7133 14.03 15.92C14.0367 16.1267 14.04 16.25 14.04 16.29C14.04 17.65 13.77 18.86 13.23 19.92C12.6967 20.9733 11.93 21.8 10.93 22.4C9.93 23 8.73333 23.3 7.34 23.3ZM20.9584 23.3C19.8651 23.3 18.9051 23.0633 18.0784 22.59C17.2518 22.1167 16.6051 21.46 16.1384 20.62C15.6784 19.78 15.4484 18.8133 15.4484 17.72C15.4484 16.54 15.6751 15.5167 16.1284 14.65C16.5818 13.7767 17.2118 13.1 18.0184 12.62C18.8251 12.14 19.7584 11.9 20.8184 11.9C21.9384 11.9 22.8884 12.1633 23.6684 12.69C24.4551 13.21 25.0384 13.9467 25.4184 14.9C25.7984 15.8533 25.9418 16.9767 25.8484 18.27H23.4584V17.39C23.4518 16.2167 23.2451 15.36 22.8384 14.82C22.4318 14.28 21.7918 14.01 20.9184 14.01C19.9318 14.01 19.1984 14.3167 18.7184 14.93C18.2384 15.5367 17.9984 16.4267 17.9984 17.6C17.9984 18.6933 18.2384 19.54 18.7184 20.14C19.1984 20.74 19.8984 21.04 20.8184 21.04C21.4118 21.04 21.9218 20.91 22.3484 20.65C22.7818 20.3833 23.1151 20 23.3484 19.5L25.7284 20.22C25.3151 21.1933 24.6751 21.95 23.8084 22.49C22.9484 23.03 21.9984 23.3 20.9584 23.3ZM17.2384 18.27V16.45H24.6684V18.27H17.2384ZM34.4097 23C33.6964 23.1333 32.9964 23.19 32.3097 23.17C31.6297 23.1567 31.0197 23.0333 30.4797 22.8C29.9397 22.56 29.5297 22.1833 29.2497 21.67C29.003 21.2033 28.873 20.7267 28.8597 20.24C28.8464 19.7533 28.8397 19.2033 28.8397 18.59V9.2H31.2397V18.45C31.2397 18.8833 31.243 19.2633 31.2497 19.59C31.263 19.9167 31.333 20.1833 31.4597 20.39C31.6997 20.79 32.083 21.0133 32.6097 21.06C33.1364 21.1067 33.7364 21.08 34.4097 20.98V23ZM26.8797 14.09V12.2H34.4097V14.09H26.8797ZM44.9059 23.3C43.5726 23.3 42.4893 23 41.6559 22.4C40.8226 21.8 40.3159 20.9567 40.1359 19.87L42.5959 19.49C42.7226 20.0233 43.0026 20.4433 43.4359 20.75C43.8693 21.0567 44.4159 21.21 45.0759 21.21C45.6559 21.21 46.1026 21.0967 46.4159 20.87C46.7359 20.6367 46.8959 20.32 46.8959 19.92C46.8959 19.6733 46.8359 19.4767 46.7159 19.33C46.6026 19.1767 46.3493 19.03 45.9559 18.89C45.5626 18.75 44.9593 18.5733 44.1459 18.36C43.2393 18.12 42.5193 17.8633 41.9859 17.59C41.4526 17.31 41.0693 16.98 40.8359 16.6C40.6026 16.22 40.4859 15.76 40.4859 15.22C40.4859 14.5467 40.6626 13.96 41.0159 13.46C41.3693 12.96 41.8626 12.5767 42.4959 12.31C43.1293 12.0367 43.8759 11.9 44.7359 11.9C45.5759 11.9 46.3193 12.03 46.9659 12.29C47.6193 12.55 48.1459 12.92 48.5459 13.4C48.9459 13.88 49.1926 14.4433 49.2859 15.09L46.8259 15.53C46.7659 15.07 46.5559 14.7067 46.1959 14.44C45.8426 14.1733 45.3693 14.0233 44.7759 13.99C44.2093 13.9567 43.7526 14.0433 43.4059 14.25C43.0593 14.45 42.8859 14.7333 42.8859 15.1C42.8859 15.3067 42.9559 15.4833 43.0959 15.63C43.2359 15.7767 43.5159 15.9233 43.9359 16.07C44.3626 16.2167 44.9959 16.3967 45.8359 16.61C46.6959 16.83 47.3826 17.0833 47.8959 17.37C48.4159 17.65 48.7893 17.9867 49.0159 18.38C49.2493 18.7733 49.3659 19.25 49.3659 19.81C49.3659 20.8967 48.9693 21.75 48.1759 22.37C47.3893 22.99 46.2993 23.3 44.9059 23.3ZM57.8863 23C57.1729 23.1333 56.4729 23.19 55.7863 23.17C55.1063 23.1567 54.4963 23.0333 53.9563 22.8C53.4163 22.56 53.0063 22.1833 52.7262 21.67C52.4796 21.2033 52.3496 20.7267 52.3363 20.24C52.3229 19.7533 52.3163 19.2033 52.3163 18.59V9.2H54.7163V18.45C54.7163 18.8833 54.7196 19.2633 54.7263 19.59C54.7396 19.9167 54.8096 20.1833 54.9363 20.39C55.1763 20.79 55.5596 21.0133 56.0863 21.06C56.6129 21.1067 57.2129 21.08 57.8863 20.98V23ZM50.3563 14.09V12.2H57.8863V14.09H50.3563ZM63.2286 23.3C62.4486 23.3 61.7886 23.1533 61.2486 22.86C60.7086 22.56 60.2986 22.1633 60.0186 21.67C59.7453 21.1767 59.6086 20.6333 59.6086 20.04C59.6086 19.52 59.6953 19.0533 59.8686 18.64C60.0419 18.22 60.3086 17.86 60.6686 17.56C61.0286 17.2533 61.4953 17.0033 62.0686 16.81C62.5019 16.67 63.0086 16.5433 63.5886 16.43C64.1753 16.3167 64.8086 16.2133 65.4886 16.12C66.1753 16.02 66.8919 15.9133 67.6386 15.8L66.7786 16.29C66.7853 15.5433 66.6186 14.9933 66.2786 14.64C65.9386 14.2867 65.3653 14.11 64.5586 14.11C64.0719 14.11 63.6019 14.2233 63.1486 14.45C62.6953 14.6767 62.3786 15.0667 62.1986 15.62L59.9986 14.93C60.2653 14.0167 60.7719 13.2833 61.5186 12.73C62.2719 12.1767 63.2853 11.9 64.5586 11.9C65.5186 11.9 66.3619 12.0567 67.0886 12.37C67.8219 12.6833 68.3653 13.1967 68.7186 13.91C68.9119 14.29 69.0286 14.68 69.0686 15.08C69.1086 15.4733 69.1286 15.9033 69.1286 16.37V23H67.0186V20.66L67.3686 21.04C66.8819 21.82 66.3119 22.3933 65.6586 22.76C65.0119 23.12 64.2019 23.3 63.2286 23.3ZM63.7086 21.38C64.2553 21.38 64.7219 21.2833 65.1086 21.09C65.4953 20.8967 65.8019 20.66 66.0286 20.38C66.2619 20.1 66.4186 19.8367 66.4986 19.59C66.6253 19.2833 66.6953 18.9333 66.7086 18.54C66.7286 18.14 66.7386 17.8167 66.7386 17.57L67.4786 17.79C66.7519 17.9033 66.1286 18.0033 65.6086 18.09C65.0886 18.1767 64.6419 18.26 64.2686 18.34C63.8953 18.4133 63.5653 18.4967 63.2786 18.59C62.9986 18.69 62.7619 18.8067 62.5686 18.94C62.3753 19.0733 62.2253 19.2267 62.1186 19.4C62.0186 19.5733 61.9686 19.7767 61.9686 20.01C61.9686 20.2767 62.0353 20.5133 62.1686 20.72C62.3019 20.92 62.4953 21.08 62.7486 21.2C63.0086 21.32 63.3286 21.38 63.7086 21.38ZM71.732 23V12.2H73.862V14.83L73.602 14.49C73.7354 14.13 73.912 13.8033 74.132 13.51C74.3587 13.21 74.6287 12.9633 74.942 12.77C75.2087 12.59 75.502 12.45 75.822 12.35C76.1487 12.2433 76.482 12.18 76.822 12.16C77.162 12.1333 77.492 12.1467 77.812 12.2V14.45C77.492 14.3567 77.122 14.3267 76.702 14.36C76.2887 14.3933 75.9154 14.51 75.582 14.71C75.2487 14.89 74.9754 15.12 74.762 15.4C74.5554 15.68 74.402 16 74.302 16.36C74.202 16.7133 74.152 17.0967 74.152 17.51V23H71.732ZM86.0503 23C85.337 23.1333 84.637 23.19 83.9503 23.17C83.2703 23.1567 82.6603 23.0333 82.1203 22.8C81.5803 22.56 81.1703 22.1833 80.8903 21.67C80.6436 21.2033 80.5136 20.7267 80.5003 20.24C80.487 19.7533 80.4803 19.2033 80.4803 18.59V9.2H82.8803V18.45C82.8803 18.8833 82.8836 19.2633 82.8903 19.59C82.9036 19.9167 82.9736 20.1833 83.1003 20.39C83.3403 20.79 83.7236 21.0133 84.2503 21.06C84.777 21.1067 85.377 21.08 86.0503 20.98V23ZM78.5203 14.09V12.2H86.0503V14.09H78.5203ZM92.7358 23.3C91.6424 23.3 90.6824 23.0633 89.8558 22.59C89.0291 22.1167 88.3824 21.46 87.9158 20.62C87.4558 19.78 87.2258 18.8133 87.2258 17.72C87.2258 16.54 87.4524 15.5167 87.9058 14.65C88.3591 13.7767 88.9891 13.1 89.7958 12.62C90.6024 12.14 91.5358 11.9 92.5958 11.9C93.7158 11.9 94.6658 12.1633 95.4458 12.69C96.2324 13.21 96.8158 13.9467 97.1958 14.9C97.5758 15.8533 97.7191 16.9767 97.6258 18.27H95.2358V17.39C95.2291 16.2167 95.0224 15.36 94.6158 14.82C94.2091 14.28 93.5691 14.01 92.6958 14.01C91.7091 14.01 90.9758 14.3167 90.4958 14.93C90.0158 15.5367 89.7758 16.4267 89.7758 17.6C89.7758 18.6933 90.0158 19.54 90.4958 20.14C90.9758 20.74 91.6758 21.04 92.5958 21.04C93.1891 21.04 93.6991 20.91 94.1258 20.65C94.5591 20.3833 94.8924 20 95.1258 19.5L97.5058 20.22C97.0924 21.1933 96.4524 21.95 95.5858 22.49C94.7258 23.03 93.7758 23.3 92.7358 23.3ZM89.0158 18.27V16.45H96.4458V18.27H89.0158ZM104.187 23.3C103.194 23.3 102.327 23.05 101.587 22.55C100.847 22.05 100.274 21.37 99.867 20.51C99.4604 19.65 99.257 18.68 99.257 17.6C99.257 16.5067 99.4604 15.5333 99.867 14.68C100.28 13.82 100.864 13.1433 101.617 12.65C102.37 12.15 103.257 11.9 104.277 11.9C105.304 11.9 106.164 12.15 106.857 12.65C107.557 13.1433 108.087 13.82 108.447 14.68C108.807 15.54 108.987 16.5133 108.987 17.6C108.987 18.6733 108.807 19.6433 108.447 20.51C108.087 21.37 107.55 22.05 106.837 22.55C106.124 23.05 105.24 23.3 104.187 23.3ZM104.557 21.14C105.204 21.14 105.724 20.9933 106.117 20.7C106.517 20.4 106.807 19.9833 106.987 19.45C107.174 18.9167 107.267 18.3 107.267 17.6C107.267 16.8933 107.174 16.2767 106.987 15.75C106.807 15.2167 106.524 14.8033 106.137 14.51C105.75 14.21 105.25 14.06 104.637 14.06C103.99 14.06 103.457 14.22 103.037 14.54C102.617 14.8533 102.307 15.28 102.107 15.82C101.907 16.3533 101.807 16.9467 101.807 17.6C101.807 18.26 101.904 18.86 102.097 19.4C102.297 19.9333 102.6 20.3567 103.007 20.67C103.414 20.9833 103.93 21.14 104.557 21.14ZM107.267 23V15.42H106.967V8.6H109.397V23H107.267Z" fill="#8C30F5"/>
<path d="M134.293 9.70711C133.903 9.31658 133.903 8.68342 134.293 8.29289C134.684 7.90237 135.317 7.90237 135.707 8.29289L141.707 14.2929C142.098 14.6834 142.098 15.3166 141.707 15.7071L135.707 21.7071C135.317 22.0976 134.684 22.0976 134.293 21.7071C133.903 21.3166 133.903 20.6834 134.293 20.2929L138.586 16H121.011C120.453 16 120 15.5523 120 15C120 14.4477 120.453 14 121.011 14H138.586L134.293 9.70711Z" fill="#8C30F5"/>
</svg>
